<!--?xml version="1.0" standalone="no"?-->

<svg version="1.0" xmlns="http://www.w3.org/2000/svg" width="293.000000pt" height="300.000000pt" viewBox="0 0 293.000000 300.000000" preserveAspectRatio="xMidYMid meet">
<g transform="translate(0.000000,300.000000) scale(0.100000,-0.100000)" fill="#020202" stroke="none">
<path class="node" id="node1" d="M701 2869 c-159 -98 -313 -246 -424 -411 -63 -92 -150 -261 -163
-315 -4 -15 -10 -32 -14 -38 -4 -5 -21 -66 -36 -135 -27 -116 -29 -140 -28
-325 0 -182 3 -210 28 -310 28 -117 45 -168 83 -253 12 -29 23 -54 23 -56 0
-3 19 -37 42 -78 94 -165 233 -324 383 -439 102 -78 107 -78 71 -6 -39 77 -79
180 -108 277 -18 60 -23 99 -23 197 0 115 1 123 24 147 45 48 113 30 187 -49
56 -60 164 -241 200 -335 13 -34 14 -32 8 30 -12 115 -7 263 9 302 50 120 139
99 241 -56 68 -105 106 -199 165 -406 30 -107 69 -314 77 -412 9 -99 13 -88
43 107 52 337 140 600 252 751 109 148 212 117 234 -72 6 -55 -7 -226 -21
-271 -3 -10 21 34 53 98 113 224 212 339 292 339 27 0 44 -7 62 -26 21 -23 24
-36 27 -123 5 -139 -36 -292 -131 -492 -15 -29 -24 -55 -22 -57 10 -11 149
101 240 192 197 198 327 439 387 716 32 149 36 384 9 531 -23 123 -52 227 -83
299 -103 244 -262 452 -461 603 -73 56 -177 121 -177 111 0 -3 16 -25 35 -48
111 -135 176 -421 128 -562 -20 -60 -88 -128 -164 -166 -100 -50 -239 -56
-303 -14 -67 44 -149 267 -191 521 -4 22 -12 58 -17 80 l-11 40 -13 -84 c-15
-104 -49 -159 -111 -180 -35 -13 -47 -13 -83 -1 -70 23 -103 79 -117 198 -3
28 -9 52 -12 52 -3 0 -14 -39 -23 -87 -35 -183 -82 -368 -98 -388 -4 -5 -11
-21 -15 -35 -13 -43 -64 -109 -98 -127 -42 -21 -155 -21 -230 1 -74 21 -174
97 -207 156 -36 65 -40 202 -10 320 26 100 88 236 132 285 17 20 29 37 27 39
-2 2 -33 -14 -68 -35z"></path>
</g>
<g transform="translate(0.000000,300.000000) scale(0.100000,-0.100000)" fill="#A0A0A0" stroke="none">

</g>
</svg>